<?xml version="1.0" standalone="no"?>
<!DOCTYPE svg PUBLIC "-//W3C//DTD SVG 20010904//EN"
 "http://www.w3.org/TR/2001/REC-SVG-20010904/DTD/svg10.dtd">
<svg version="1.0" xmlns="http://www.w3.org/2000/svg"
 width="512.000000pt" height="512.000000pt" viewBox="0 0 512.000000 512.000000"
 preserveAspectRatio="xMidYMid meet">

<g transform="translate(0.000000,512.000000) scale(0.100000,-0.100000)"
fill="#000000" stroke="none">
<path d="M340 1783 c0 -21 66 -177 121 -287 137 -272 319 -503 565 -720 499
-439 1198 -645 1864 -550 519 74 1022 332 1379 710 209 221 394 516 495 787
l25 68 -61 -3 c-58 -3 -62 -4 -71 -33 -21 -69 -161 -337 -224 -431 -227 -340
-521 -598 -878 -774 -323 -159 -630 -230 -995 -230 -365 0 -672 71 -995 230
-481 237 -861 639 -1071 1133 l-43 102 -56 3 c-30 2 -55 -1 -55 -5z"/>
<path d="M666 1768 c4 -13 31 -72 61 -131 367 -734 1145 -1181 1961 -1127 340
23 652 121 941 296 319 194 588 485 760 824 85 167 84 160 14 159 l-58 0 -47
-98 c-167 -345 -474 -660 -829 -850 -279 -149 -579 -222 -909 -222 -454 0
-871 146 -1221 429 -102 82 -281 270 -353 371 -65 90 -179 286 -198 338 -12
32 -13 33 -71 33 -56 0 -58 -1 -51 -22z"/>
<path d="M1488 1753 c-52 -55 -71 -99 -76 -179 -7 -103 16 -163 87 -235 72
-71 132 -94 235 -87 115 8 205 69 256 174 27 53 29 98 15 272 l-7 92 -237 0
-237 0 -36 -37z m336 -40 c52 -37 79 -92 79 -163 0 -61 -17 -101 -60 -142 -69
-66 -191 -65 -267 1 -65 57 -75 188 -20 258 69 87 182 106 268 46z"/>
</g>
</svg>
